:FULLY-SPECIFIED
:FORCE-ALL-JOINTS-BE-3DOF
:DEGREES
259
root 9.56153 16.5075 -0.34163 8.70609 -5.09405 -0.292997
lfemur -35.1446 8.61797 -25.9039
ltibia 38.9 -0 0
lfoot -11.0069 4.98954 0.0590414
ltoes -0.208371 0 0
rfemur -0.452505 0.88579 17.8808
rtibia 36.5219 -0 0
rfoot 3.50518 0.203141 1.0364
rtoes -18.1195 0 0
lowerback -6.06791 0.741662 -1.78264
upperback -2.4672 1.07709 1.74444
thorax 0.866157 0.544036 2.83508
lowerneck -19.5503 -5.2452 -13.2331
upperneck 19.0895 -6.53575 13.6205
head 10.2582 -2.49244 6.14938
lclavicle 3.13086e-14 9.54166e-15 0
lhumerus -37.1013 -7.23184 87.4711
lradius 20.5198 -0 0
lwrist -6.02158 0 0
lhand -9.48863 -22.9423 0.0311674
lfingers 7.12502 -0 0
lthumb 16.4734 6.33792 0.0212113
rclavicle 3.13086e-14 9.54166e-15 0
rhumerus -47.5688 7.88304 -86.2165
rradius 40.1545 -0 0
rwrist -22.1041 0 0
rhand -29.0413 -21.6509 -0.0187039
rfingers 7.12502 -0 0
rthumb -2.39165 -51.6197 -0.01786
260
root 9.57869 16.52 -0.211736 8.57382 -4.95766 -0.145817
lfemur -34.242 8.46079 -26.0817
ltibia 38.4287 -0 0
lfoot -11.3962 5.00485 0.0637177
ltoes -0.271134 0 0
rfemur -1.68987 0.837838 17.7601
rtibia 37.0215 -0 0
rfoot 2.61439 -0.332268 1.11295
rtoes -18.3818 0 0
lowerback -6.02753 0.597153 -1.88407
upperback -2.38206 0.890185 1.75513
thorax 0.946157 0.448413 2.88897
lowerneck -19.6561 -5.1827 -13.1565
upperneck 19.2492 -6.448 13.5165
head 10.3157 -2.45396 6.11771
lclavicle 3.13086e-14 9.54166e-15 0
lhumerus -36.1563 -7.53317 87.4078
lradius 20.6301 -0 0
lwrist -5.76094 0 0
lhand -9.76611 -22.9938 0.0339504
lfingers 7.12502 -0 0
lthumb 16.2061 6.30544 0.0232064
rclavicle 3.13086e-14 9.54166e-15 0
rhumerus -47.5707 7.86955 -86.1116
rradius 40.2137 -0 0
rwrist -22.1668 0 0
rhand -29.0599 -21.5996 -0.0188724
rfingers 7.12502 -0 0
rthumb -2.40962 -51.5683 -0.0180222
261
root 9.59585 16.5324 -0.081842 8.43758 -4.81226 0.00277003
lfemur -33.3148 8.29727 -26.2606
ltibia 37.9335 -0 0
lfoot -11.7976 5.02387 0.0684188
ltoes -0.346525 0 0
rfemur -2.96209 0.788675 17.6449
rtibia 37.5201 -0 0
rfoot 1.68523 -0.880716 1.1816
rtoes -18.6461 0 0
lowerback -5.98596 0.449206 -1.9862
upperback -2.29353 0.698568 1.76686
thorax 1.0295 0.350293 2.9441
lowerneck -19.7628 -5.11921 -13.0785
upperneck 19.4106 -6.35873 13.4108
head 10.3739 -2.41498 6.08539
lclavicle 3.13086e-14 9.54166e-15 0
lhumerus -35.1909 -7.84576 87.3434
lradius 20.7488 -0 0
lwrist -5.48329 0 0
lhand -10.0526 -23.0474 0.0365356
lfingers 7.12502 -0 0
lthumb 15.9301 6.27145 0.0250882
rclavicle 3.13086e-14 9.54166e-15 0
rhumerus -47.5658 7.85778 -86.0008
rradius 40.2604 -0 0
rwrist -22.2338 0 0
rhand -29.0815 -21.5516 -0.018857
rfingers 7.12502 -0 0
rthumb -2.43041 -51.52 -0.0180086
262
root 9.61301 16.5448 0.0480522 8.29795 -4.65833 0.152363
lfemur -32.3648 8.1286 -26.4402
ltibia 37.4161 -0 0
lfoot -12.2089 5.046 0.0731464
ltoes -0.433924 0 0
rfemur -4.26511 0.738396 17.5349
rtibia 38.017 -0 0
rfoot 0.722288 -1.44003 1.24133
rtoes -18.9117 0 0
lowerback -5.94341 0.29824 -2.08889
upperback -2.20201 0.502786 1.77948
thorax 1.11582 0.249952 3.00028
lowerneck -19.8701 -5.0549 -12.9997
upperneck 19.5733 -6.26819 13.3036
head 10.4324 -2.3756 6.05256
lclavicle 3.13086e-14 9.54166e-15 0
lhumerus -34.2081 -8.1689 87.2778
lradius 20.8755 -0 0
lwrist -5.19005 0 0
lhand -10.3467 -23.103 0.0388837
lfingers 7.12502 -0 0
lthumb 15.6467 6.23607 0.0268296
rclavicle 3.13086e-14 9.54166e-15 0
rhumerus -47.5549 7.84756 -85.8847
rradius 40.3242 -0 0
rwrist -22.3044 0 0
rhand -29.1056 -21.5067 -0.0186685
rfingers 7.12502 -0 0
rthumb -2.45375 -51.4748 -0.0178295
263
root 9.63018 16.5572 0.177946 8.15552 -4.49637 0.302563
lfemur -31.3939 7.95594 -26.6204
ltibia 36.878 -0 0
lfoot -12.628 5.07062 0.0778932
ltoes -0.53271 0 0
rfemur -5.59489 0.687118 17.4303
rtibia 38.5112 -0 0
rfoot -0.269813 -2.008 1.29125
rtoes -19.1778 0 0
lowerback -5.9001 0.144675 -2.19196
upperback -2.10794 0.303388 1.79287
thorax 1.20479 0.14767 3.05734
lowerneck -19.9776 -4.98996 -12.92
upperneck 19.7369 -6.17667 13.1955
head 10.4913 -2.33595 6.01933
lclavicle 3.13086e-14 9.54166e-15 0
lhumerus -33.2109 -8.50189 87.2109
lradius 21.0099 -0 0
lwrist -4.88265 0 0
lhand -10.647 -23.1604 0.0409593
lfingers 7.12502 -0 0
lthumb 15.3573 6.19941 0.0284056
rclavicle 3.13086e-14 9.54166e-15 0
rhumerus -47.5384 7.8387 -85.7637
rradius 40.3939 -0 0
rwrist -22.3778 0 0
rhand -29.1321 -21.465 -0.0183187
rfingers 7.12502 -0 0
rthumb -2.47936 -51.4328 -0.0174961
264
root 9.64734 16.5696 0.30784 8.01088 -4.32688 0.452978
lfemur -30.404 7.78041 -26.8007
ltibia 36.321 -0 0
lfoot -13.0528 5.09715 0.082643
ltoes -0.642259 0 0
rfemur -6.94737 0.634975 17.3308
rtibia 39.0018 -0 0
rfoot -1.28643 -2.58237 1.33063
rtoes -19.4437 0 0
lowerback -5.85624 -0.0110729 -2.29526
upperback -2.01171 0.100919 1.80691
thorax 1.29604 0.0437245 3.11511
lowerneck -20.0849 -4.92459 -12.84
upperneck 19.9008 -6.08444 13.0867
head 10.5502 -2.29614 5.98582
lclavicle 3.13086e-14 9.54166e-15 0
lhumerus -32.2022 -8.84404 87.1428
lradius 21.1518 -0 0
lwrist -4.56253 0 0
lhand -10.9523 -23.2192 0.0427313
lfingers 7.12502 -0 0
lthumb 15.0633 6.1616 0.0297938
rclavicle 3.13086e-14 9.54166e-15 0
rhumerus -47.5169 7.83102 -85.6386
rradius 40.4685 -0 0
rwrist -22.4533 0 0
rhand -29.1607 -21.4264 -0.0178201
rfingers 7.12502 -0 0
rthumb -2.50696 -51.3938 -0.0170203
265
root 9.6645 16.582 0.437735 7.8646 -4.15036 0.60322
lfemur -29.3969 7.60313 -26.9807
ltibia 35.7466 -0 0
lfoot -13.4809 5.12497 0.087369
ltoes -0.761953 0 0
rfemur -8.31852 0.582118 17.2365
rtibia 39.488 -0 0
rfoot -2.32292 -3.16084 1.3589
rtoes -19.7089 0 0
lowerback -5.81205 -0.168586 -2.39863
upperback -1.91377 -0.104071 1.82149
thorax 1.38924 -0.0616028 3.1734
lowerneck -20.1918 -4.85898 -12.7598
upperneck 20.0647 -5.99176 12.9777
head 10.6091 -2.25628 5.95217
lclavicle 3.13086e-14 9.54166e-15 0
lhumerus -31.1852 -9.19466 87.0736
lradius 21.3007 -0 0
lwrist -4.23111 0 0
lhand -11.261 -23.2793 0.0441734
lfingers 7.12502 -0 0
lthumb 14.7659 6.12275 0.0309743
rclavicle 3.13086e-14 9.54166e-15 0
rhumerus -47.491 7.82434 -85.5098
rradius 40.5468 -0 0
rwrist -22.5304 0 0
rhand -29.1911 -21.3909 -0.0171858
rfingers 7.12502 -0 0
rthumb -2.53626 -51.3579 -0.0164146
266
root 9.68166 16.5944 0.567629 7.71726 -3.96732 0.752907
lfemur -28.3746 7.42517 -27.1601
ltibia 35.1564 -0 0
lfoot -13.9102 5.15349 0.0920338
ltoes -0.891168 0 0
rfemur -9.70429 0.528713 17.1473
rtibia 39.9686 -0 0
rfoot -3.37459 -3.7411 1.37564
rtoes -19.9725 0 0
lowerback -5.76775 -0.32745 -2.50191
upperback -1.81451 -0.311036 1.83649
thorax 1.48403 -0.168031 3.23205
lowerneck -20.298 -4.79331 -12.6797
upperneck 20.228 -5.89894 12.8689
head 10.6677 -2.2165 5.91848
lclavicle 3.13086e-14 9.54166e-15 0
lhumerus -30.1628 -9.55311 87.0032
lradius 21.4565 -0 0
lwrist -3.88982 0 0
lhand -11.5718 -23.3405 0.045264
lfingers 7.12502 -0 0
lthumb 14.4664 6.08298 0.0319301
rclavicle 3.13086e-14 9.54166e-15 0
rhumerus -47.4614 7.81849 -85.3779
rradius 40.6279 -0 0
rwrist -22.6083 0 0
rhand -29.2229 -21.3585 -0.0164298
rfingers 7.12502 -0 0
rthumb -2.567 -51.325 -0.0156922
267
root 9.69882 16.6068 0.697523 7.56943 -3.77828 0.901664
lfemur -27.3389 7.24757 -27.3382
ltibia 34.5522 -0 0
lfoot -14.3385 5.18212 0.096589
ltoes -1.02928 0 0
rfemur -11.1006 0.474937 17.063
rtibia 40.443 -0 0
rfoot -4.43679 -4.32081 1.38062
rtoes -20.2339 0 0
lowerback -5.72356 -0.48725 -2.60493
upperback -1.71435 -0.519426 1.8518
thorax 1.58006 -0.275276 3.29089
lowerneck -20.403 -4.72779 -12.6
upperneck 20.3904 -5.80624 12.7605
head 10.726 -2.17692 5.88489
lclavicle 3.13086e-14 9.54166e-15 0
lhumerus -29.1381 -9.91873 86.932
lradius 21.6188 -0 0
lwrist -3.54008 0 0
lhand -11.8834 -23.4026 0.0459867
lfingers 7.12502 -0 0
lthumb 14.1662 6.0424 0.032647
rclavicle 3.13086e-14 9.54166e-15 0
rhumerus -47.4285 7.81329 -85.2436
rradius 40.7107 -0 0
rwrist -22.6863 0 0
rhand -29.2559 -21.3291 -0.0155664
rfingers 7.12502 -0 0
rthumb -2.59889 -51.2951 -0.014867
268
root 9.71598 16.6193 0.827417 7.42166 -3.58375 1.04912
lfemur -26.2917 7.07134 -27.5146
ltibia 33.9355 -0 0
lfoot -14.7637 5.21025 0.100975
ltoes -1.17568 0 0
rfemur -12.5035 0.420977 16.9836
rtibia 40.9101 -0 0
rfoot -5.50482 -4.89763 1.37379
rtoes -20.4924 0 0
lowerback -5.67972 -0.647573 -2.70753
upperback -1.61371 -0.728692 1.86733
thorax 1.677 -0.383055 3.34974
lowerneck -20.5067 -4.66261 -12.5209
upperneck 20.5514 -5.71396 12.6531
head 10.7837 -2.13765 5.85151
lclavicle 3.13086e-14 9.54166e-15 0
lhumerus -28.1141 -10.2909 86.8601
lradius 21.7874 -0 0
lwrist -3.18334 0 0
lhand -12.1943 -23.4654 0.0463306
lfingers 7.12502 -0 0
lthumb 13.8667 6.00114 0.0331141
rclavicle 3.13086e-14 9.54166e-15 0
rhumerus -47.393 7.80858 -85.1073
rradius 40.7942 -0 0
rwrist -22.7638 0 0
rhand -29.2899 -21.3027 -0.0146107
rfingers 7.12502 -0 0
rthumb -2.63165 -51.2682 -0.0139532
269
root 9.73314 16.6317 0.957311 7.27452 -3.38425 1.19492
lfemur -25.2349 6.89748 -27.6887
ltibia 33.3079 -0 0
lfoot -15.1834 5.23729 0.105121
ltoes -1.32974 0 0
rfemur -13.9089 0.367026 16.9089
rtibia 41.369 -0 0
rfoot -6.57402 -5.46921 1.35526
rtoes -20.7473 0 0
lowerback -5.63644 -0.808007 -2.80952
upperback -1.513 -0.938285 1.88297
thorax 1.7745 -0.491082 3.40845
lowerneck -20.6085 -4.59797 -12.4427
upperneck 20.7106 -5.6224 12.5469
head 10.8407 -2.09881 5.81846
lclavicle 3.13086e-14 9.54166e-15 0
lhumerus -27.094 -10.669 86.7878
lradius 21.9618 -0 0
lwrist -2.82101 0 0
lhand -12.5032 -23.5286 0.0462897
lfingers 7.12502 -0 0
lthumb 13.5691 5.95931 0.0333233
rclavicle 3.13086e-14 9.54166e-15 0
rhumerus -47.3554 7.80419 -84.9697
rradius 40.8774 -0 0
rwrist -22.84 0 0
rhand -29.3244 -21.2793 -0.0135777
rfingers 7.12502 -0 0
rthumb -2.665 -51.2443 -0.0129652
270
root 9.7503 16.6441 1.08721 7.12854 -3.18032 1.3387
lfemur -24.1704 6.72691 -27.8599
ltibia 32.6711 -0 0
lfoot -15.5957 5.26264 0.108946
ltoes -1.49083 0 0
rfemur -15.3126 0.313283 16.8388
rtibia 41.8189 -0 0
rfoot -7.63971 -6.03321 1.32534
rtoes -20.998 0 0
lowerback -5.59396 -0.96814 -2.91076
upperback -1.41263 -1.14765 1.89864
thorax 1.87221 -0.59907 3.46685
lowerneck -20.7083 -4.53407 -12.3656
upperneck 20.8675 -5.53185 12.4423
head 10.8969 -2.06052 5.78587
lclavicle 3.13086e-14 9.54166e-15 0
lhumerus -26.0806 -11.0524 86.7155
lradius 22.1418 -0 0
lwrist -2.45452 0 0
lhand -12.8087 -23.592 0.0458637
lfingers 7.12502 -0 0
lthumb 13.2747 5.91704 0.03327
rclavicle 3.13086e-14 9.54166e-15 0
rhumerus -47.3164 7.79995 -84.8313
rradius 40.9592 -0 0
rwrist -22.9144 0 0
rhand -29.3593 -21.2589 -0.0124831
rfingers 7.12502 -0 0
rthumb -2.69867 -51.2233 -0.0119182
